<svg width="1208" height="62" viewBox="0 0 1208 62" fill="none" xmlns="http://www.w3.org/2000/svg">
<path d="M24.096 15.496V39.832C24.096 41.336 23.84 42.696 23.328 43.912C22.816 45.096 22.08 46.104 21.12 46.936C20.192 47.768 19.056 48.424 17.712 48.904C16.4 49.352 14.928 49.576 13.296 49.576C10.128 49.576 7.632 48.776 5.808 47.176C4.016 45.576 2.864 43.448 2.352 40.792L8.256 39.544C8.544 40.952 9.056 42.12 9.792 43.048C10.56 43.944 11.728 44.392 13.296 44.392C14.736 44.392 15.84 43.976 16.608 43.144C17.376 42.28 17.76 40.936 17.76 39.112V20.68H6.432V15.496H24.096ZM38.0453 15.496V36.376C38.0453 37.624 38.0773 38.744 38.1413 39.736C38.2373 40.728 38.4453 41.576 38.7653 42.28C39.1173 42.952 39.6293 43.48 40.3013 43.864C41.0053 44.248 41.9653 44.44 43.1813 44.44C44.3973 44.44 45.3413 44.248 46.0133 43.864C46.7173 43.48 47.2293 42.952 47.5493 42.28C47.9013 41.576 48.1093 40.728 48.1733 39.736C48.2693 38.744 48.3173 37.624 48.3173 36.376V15.496H54.6053V35.416C54.6053 37.784 54.4613 39.848 54.1733 41.608C53.8853 43.368 53.3253 44.84 52.4933 46.024C51.6613 47.208 50.4933 48.104 48.9893 48.712C47.5173 49.288 45.5813 49.576 43.1813 49.576C40.7813 49.576 38.8293 49.288 37.3253 48.712C35.8533 48.104 34.7013 47.208 33.8693 46.024C33.0373 44.84 32.4773 43.368 32.1893 41.608C31.9013 39.848 31.7573 37.784 31.7573 35.416V15.496H38.0453ZM62.3625 49V15.496H68.6505V43.816H83.4825V49H62.3625ZM90.0878 49V44.296H97.6238V20.2H90.0878V15.496H111.4V20.2H103.864V44.296H111.4V49H90.0878ZM136.677 49L134.325 40.504H124.389L122.085 49H115.749L125.157 15.496H133.893L143.349 49H136.677ZM129.573 21.688H129.189L125.493 35.368H133.269L129.573 21.688ZM199.184 49H174.992V43.48L191.648 20.68H175.568V15.496H198.56V21.016L181.952 43.816H199.184V49ZM220.765 34.6H210.973V49H204.685V15.496H210.973V29.416H220.765V15.496H227.053V49H220.765V34.6ZM244.65 49.576C242.474 49.576 240.586 49.192 238.986 48.424C237.386 47.624 236.058 46.488 235.002 45.016C233.978 43.544 233.21 41.736 232.698 39.592C232.218 37.448 231.978 35 231.978 32.248C231.978 29.528 232.218 27.096 232.698 24.952C233.21 22.776 233.978 20.952 235.002 19.48C236.058 18.008 237.386 16.888 238.986 16.12C240.586 15.32 242.474 14.92 244.65 14.92C249.002 14.92 252.202 16.44 254.25 19.48C256.298 22.52 257.322 26.776 257.322 32.248C257.322 37.72 256.298 41.976 254.25 45.016C252.202 48.056 249.002 49.576 244.65 49.576ZM244.65 44.44C245.77 44.44 246.714 44.232 247.482 43.816C248.25 43.368 248.858 42.744 249.306 41.944C249.786 41.144 250.122 40.168 250.314 39.016C250.538 37.832 250.65 36.52 250.65 35.08V29.368C250.65 26.488 250.202 24.216 249.306 22.552C248.442 20.888 246.89 20.056 244.65 20.056C242.41 20.056 240.842 20.888 239.946 22.552C239.082 24.216 238.65 26.488 238.65 29.368V35.128C238.65 38.008 239.082 40.28 239.946 41.944C240.842 43.608 242.41 44.44 244.65 44.44ZM268.295 15.496V36.376C268.295 37.624 268.327 38.744 268.391 39.736C268.487 40.728 268.695 41.576 269.015 42.28C269.367 42.952 269.879 43.48 270.551 43.864C271.255 44.248 272.215 44.44 273.431 44.44C274.647 44.44 275.591 44.248 276.263 43.864C276.967 43.48 277.479 42.952 277.799 42.28C278.151 41.576 278.359 40.728 278.423 39.736C278.519 38.744 278.567 37.624 278.567 36.376V15.496H284.855V35.416C284.855 37.784 284.711 39.848 284.423 41.608C284.135 43.368 283.575 44.84 282.743 46.024C281.911 47.208 280.743 48.104 279.239 48.712C277.767 49.288 275.831 49.576 273.431 49.576C271.031 49.576 269.079 49.288 267.575 48.712C266.103 48.104 264.951 47.208 264.119 46.024C263.287 44.84 262.727 43.368 262.439 41.608C262.151 39.848 262.007 37.784 262.007 35.416V15.496H268.295Z" fill="black"/>
<path d="M806.64 31.4C806.173 31.4 805.847 31.3067 805.66 31.12C805.473 30.92 805.38 30.6733 805.38 30.38V30.06C805.38 29.7667 805.473 29.5267 805.66 29.34C805.847 29.14 806.173 29.04 806.64 29.04C807.107 29.04 807.433 29.14 807.62 29.34C807.807 29.5267 807.9 29.7667 807.9 30.06V30.38C807.9 30.6733 807.807 30.92 807.62 31.12C807.433 31.3067 807.107 31.4 806.64 31.4ZM802.12 42.64H805.84V35.04H802.12V33.68H807.44V42.64H810.92V44H802.12V42.64ZM813.592 42.64H817.192V30.56H813.592V29.2H818.792V42.64H822.392V44H813.592V42.64ZM825.584 42.64H829.184V30.56H825.584V29.2H830.784V42.64H834.384V44H825.584V42.64ZM844.417 42.32H844.337C844.23 42.5733 844.097 42.82 843.937 43.06C843.777 43.2867 843.577 43.4867 843.337 43.66C843.11 43.8333 842.837 43.9733 842.517 44.08C842.197 44.1867 841.823 44.24 841.397 44.24C840.317 44.24 839.45 43.9 838.797 43.22C838.143 42.5267 837.817 41.5533 837.817 40.3V33.68H839.417V40.02C839.417 40.9667 839.623 41.6733 840.037 42.14C840.45 42.5933 841.057 42.82 841.857 42.82C842.177 42.82 842.49 42.78 842.797 42.7C843.103 42.62 843.377 42.5 843.617 42.34C843.857 42.18 844.05 41.98 844.197 41.74C844.343 41.4867 844.417 41.1867 844.417 40.84V33.68H846.017V44H844.417V42.32ZM854.089 44.24C853.009 44.24 852.075 44.06 851.289 43.7C850.515 43.3267 849.855 42.8333 849.309 42.22L850.389 41.28C850.882 41.8 851.422 42.2 852.009 42.48C852.595 42.76 853.302 42.9 854.129 42.9C854.929 42.9 855.582 42.76 856.089 42.48C856.609 42.1867 856.869 41.7333 856.869 41.12C856.869 40.8533 856.815 40.6333 856.709 40.46C856.615 40.2733 856.482 40.1267 856.309 40.02C856.135 39.9133 855.942 39.8333 855.729 39.78C855.515 39.7133 855.289 39.66 855.049 39.62L853.429 39.38C853.069 39.3267 852.675 39.2533 852.249 39.16C851.835 39.0667 851.455 38.92 851.109 38.72C850.762 38.5067 850.469 38.2267 850.229 37.88C850.002 37.5333 849.889 37.08 849.889 36.52C849.889 36 849.989 35.5533 850.189 35.18C850.402 34.7933 850.695 34.4733 851.069 34.22C851.442 33.9533 851.882 33.76 852.389 33.64C852.895 33.5067 853.449 33.44 854.049 33.44C854.982 33.44 855.789 33.5867 856.469 33.88C857.162 34.1733 857.755 34.58 858.249 35.1L857.209 36.08C857.089 35.9333 856.935 35.7867 856.749 35.64C856.575 35.48 856.355 35.34 856.089 35.22C855.835 35.0867 855.535 34.98 855.189 34.9C854.842 34.82 854.442 34.78 853.989 34.78C853.175 34.78 852.549 34.92 852.109 35.2C851.682 35.48 851.469 35.8867 851.469 36.42C851.469 36.6867 851.515 36.9133 851.609 37.1C851.715 37.2733 851.855 37.4133 852.029 37.52C852.202 37.6267 852.395 37.7133 852.609 37.78C852.835 37.8333 853.062 37.88 853.289 37.92L854.909 38.16C855.282 38.2133 855.675 38.2867 856.089 38.38C856.502 38.4733 856.882 38.6267 857.229 38.84C857.575 39.04 857.862 39.3133 858.089 39.66C858.329 40.0067 858.449 40.46 858.449 41.02C858.449 42.0467 858.049 42.84 857.249 43.4C856.462 43.96 855.409 44.24 854.089 44.24ZM866.461 44C865.674 44 865.094 43.78 864.721 43.34C864.361 42.9 864.181 42.3333 864.181 41.64V35.04H860.741V33.68H863.301C863.648 33.68 863.888 33.6133 864.021 33.48C864.168 33.3333 864.241 33.0867 864.241 32.74V30.04H865.781V33.68H870.481V35.04H865.781V42.64H870.481V44H866.461ZM873.493 42.64H876.513V35.04H873.493V33.68H878.113V36.28H878.213C878.426 35.4667 878.826 34.8333 879.413 34.38C880.013 33.9133 880.773 33.68 881.693 33.68H883.133V35.28H881.193C880.273 35.28 879.526 35.5467 878.953 36.08C878.393 36.6133 878.113 37.3133 878.113 38.18V42.64H882.113V44H873.493V42.64ZM893.845 44C893.219 44 892.772 43.84 892.505 43.52C892.239 43.2 892.072 42.8 892.005 42.32H891.905C891.679 42.92 891.312 43.3933 890.805 43.74C890.312 44.0733 889.645 44.24 888.805 44.24C887.725 44.24 886.865 43.96 886.225 43.4C885.585 42.84 885.265 42.0733 885.265 41.1C885.265 40.14 885.612 39.4 886.305 38.88C887.012 38.36 888.145 38.1 889.705 38.1H891.905V37.08C891.905 36.32 891.692 35.7533 891.265 35.38C890.839 34.9933 890.232 34.8 889.445 34.8C888.752 34.8 888.185 34.94 887.745 35.22C887.305 35.4867 886.952 35.8533 886.685 36.32L885.605 35.52C885.739 35.2533 885.919 34.9933 886.145 34.74C886.372 34.4867 886.652 34.2667 886.985 34.08C887.319 33.88 887.699 33.7267 888.125 33.62C888.552 33.5 889.025 33.44 889.545 33.44C890.759 33.44 891.719 33.7467 892.425 34.36C893.145 34.9733 893.505 35.8267 893.505 36.92V42.6H894.945V44H893.845ZM889.085 42.9C889.499 42.9 889.872 42.8533 890.205 42.76C890.552 42.6533 890.852 42.52 891.105 42.36C891.359 42.1867 891.552 41.9867 891.685 41.76C891.832 41.52 891.905 41.2667 891.905 41V39.3H889.705C888.745 39.3 888.045 39.4333 887.605 39.7C887.165 39.9667 886.945 40.3533 886.945 40.86V41.28C886.945 41.8133 887.132 42.22 887.505 42.5C887.892 42.7667 888.419 42.9 889.085 42.9ZM902.438 44C901.651 44 901.071 43.78 900.698 43.34C900.338 42.9 900.158 42.3333 900.158 41.64V35.04H896.718V33.68H899.278C899.624 33.68 899.864 33.6133 899.998 33.48C900.144 33.3333 900.218 33.0867 900.218 32.74V30.04H901.758V33.68H906.458V35.04H901.758V42.64H906.458V44H902.438ZM914.57 31.4C914.103 31.4 913.776 31.3067 913.59 31.12C913.403 30.92 913.31 30.6733 913.31 30.38V30.06C913.31 29.7667 913.403 29.5267 913.59 29.34C913.776 29.14 914.103 29.04 914.57 29.04C915.036 29.04 915.363 29.14 915.55 29.34C915.736 29.5267 915.83 29.7667 915.83 30.06V30.38C915.83 30.6733 915.736 30.92 915.55 31.12C915.363 31.3067 915.036 31.4 914.57 31.4ZM910.05 42.64H913.77V35.04H910.05V33.68H915.37V42.64H918.85V44H910.05V42.64ZM925.922 44.24C925.202 44.24 924.549 44.1133 923.962 43.86C923.389 43.6067 922.895 43.2467 922.482 42.78C922.082 42.3 921.775 41.7333 921.562 41.08C921.349 40.4133 921.242 39.6667 921.242 38.84C921.242 38.0267 921.349 37.2867 921.562 36.62C921.775 35.9533 922.082 35.3867 922.482 34.92C922.895 34.44 923.389 34.0733 923.962 33.82C924.549 33.5667 925.202 33.44 925.922 33.44C926.642 33.44 927.289 33.5667 927.862 33.82C928.449 34.0733 928.942 34.44 929.342 34.92C929.755 35.3867 930.069 35.9533 930.282 36.62C930.495 37.2867 930.602 38.0267 930.602 38.84C930.602 39.6667 930.495 40.4133 930.282 41.08C930.069 41.7333 929.755 42.3 929.342 42.78C928.942 43.2467 928.449 43.6067 927.862 43.86C927.289 44.1133 926.642 44.24 925.922 44.24ZM925.922 42.86C926.815 42.86 927.535 42.5933 928.082 42.06C928.629 41.5267 928.902 40.7 928.902 39.58V38.1C928.902 36.98 928.629 36.1533 928.082 35.62C927.535 35.0867 926.815 34.82 925.922 34.82C925.029 34.82 924.309 35.0867 923.762 35.62C923.215 36.1533 922.942 36.98 922.942 38.1V39.58C922.942 40.7 923.215 41.5267 923.762 42.06C924.309 42.5933 925.029 42.86 925.922 42.86ZM933.874 44V33.68H935.474V35.36H935.554C935.661 35.1067 935.794 34.8667 935.954 34.64C936.114 34.4 936.307 34.1933 936.534 34.02C936.774 33.8467 937.054 33.7067 937.374 33.6C937.694 33.4933 938.067 33.44 938.494 33.44C939.574 33.44 940.441 33.7867 941.094 34.48C941.747 35.16 942.074 36.1267 942.074 37.38V44H940.474V37.66C940.474 36.7133 940.267 36.0133 939.854 35.56C939.441 35.0933 938.834 34.86 938.034 34.86C937.714 34.86 937.401 34.9 937.094 34.98C936.787 35.06 936.514 35.18 936.274 35.34C936.034 35.5 935.841 35.7067 935.694 35.96C935.547 36.2133 935.474 36.5067 935.474 36.84V44H933.874ZM950.026 44.24C948.946 44.24 948.013 44.06 947.226 43.7C946.453 43.3267 945.793 42.8333 945.246 42.22L946.326 41.28C946.82 41.8 947.36 42.2 947.946 42.48C948.533 42.76 949.24 42.9 950.066 42.9C950.866 42.9 951.52 42.76 952.026 42.48C952.546 42.1867 952.806 41.7333 952.806 41.12C952.806 40.8533 952.753 40.6333 952.646 40.46C952.553 40.2733 952.42 40.1267 952.246 40.02C952.073 39.9133 951.88 39.8333 951.666 39.78C951.453 39.7133 951.226 39.66 950.986 39.62L949.366 39.38C949.006 39.3267 948.613 39.2533 948.186 39.16C947.773 39.0667 947.393 38.92 947.046 38.72C946.7 38.5067 946.406 38.2267 946.166 37.88C945.94 37.5333 945.826 37.08 945.826 36.52C945.826 36 945.926 35.5533 946.126 35.18C946.34 34.7933 946.633 34.4733 947.006 34.22C947.38 33.9533 947.82 33.76 948.326 33.64C948.833 33.5067 949.386 33.44 949.986 33.44C950.92 33.44 951.726 33.5867 952.406 33.88C953.1 34.1733 953.693 34.58 954.186 35.1L953.146 36.08C953.026 35.9333 952.873 35.7867 952.686 35.64C952.513 35.48 952.293 35.34 952.026 35.22C951.773 35.0867 951.473 34.98 951.126 34.9C950.78 34.82 950.38 34.78 949.926 34.78C949.113 34.78 948.486 34.92 948.046 35.2C947.62 35.48 947.406 35.8867 947.406 36.42C947.406 36.6867 947.453 36.9133 947.546 37.1C947.653 37.2733 947.793 37.4133 947.966 37.52C948.14 37.6267 948.333 37.7133 948.546 37.78C948.773 37.8333 949 37.88 949.226 37.92L950.846 38.16C951.22 38.2133 951.613 38.2867 952.026 38.38C952.44 38.4733 952.82 38.6267 953.166 38.84C953.513 39.04 953.8 39.3133 954.026 39.66C954.266 40.0067 954.386 40.46 954.386 41.02C954.386 42.0467 953.986 42.84 953.186 43.4C952.4 43.96 951.346 44.24 950.026 44.24ZM969.691 46.76L976.651 28.8H978.091L971.131 46.76H969.691ZM981.683 46.76L988.643 28.8H990.083L983.123 46.76H981.683ZM1005.77 33.68H1007.37V35.36H1007.45C1008.11 34.08 1009.17 33.44 1010.63 33.44C1011.89 33.44 1012.88 33.9133 1013.59 34.86C1014.31 35.8067 1014.67 37.1333 1014.67 38.84C1014.67 40.5467 1014.31 41.8733 1013.59 42.82C1012.88 43.7667 1011.89 44.24 1010.63 44.24C1009.17 44.24 1008.11 43.6 1007.45 42.32H1007.37V48H1005.77V33.68ZM1010.01 42.82C1010.94 42.82 1011.66 42.54 1012.17 41.98C1012.69 41.4067 1012.95 40.6533 1012.95 39.72V37.96C1012.95 37.0267 1012.69 36.28 1012.17 35.72C1011.66 35.1467 1010.94 34.86 1010.01 34.86C1009.65 34.86 1009.31 34.9067 1008.99 35C1008.67 35.0933 1008.39 35.2333 1008.15 35.42C1007.91 35.5933 1007.71 35.8133 1007.57 36.08C1007.43 36.3333 1007.37 36.6333 1007.37 36.98V40.7C1007.37 41.0467 1007.43 41.3533 1007.57 41.62C1007.71 41.8733 1007.91 42.0933 1008.15 42.28C1008.39 42.4533 1008.67 42.5867 1008.99 42.68C1009.31 42.7733 1009.65 42.82 1010.01 42.82ZM1017.4 42.64H1020.42V35.04H1017.4V33.68H1022.02V36.28H1022.12C1022.33 35.4667 1022.73 34.8333 1023.32 34.38C1023.92 33.9133 1024.68 33.68 1025.6 33.68H1027.04V35.28H1025.1C1024.18 35.28 1023.43 35.5467 1022.86 36.08C1022.3 36.6133 1022.02 37.3133 1022.02 38.18V42.64H1026.02V44H1017.4V42.64ZM1033.85 44.24C1033.13 44.24 1032.48 44.1133 1031.89 43.86C1031.32 43.6067 1030.82 43.2467 1030.41 42.78C1030.01 42.3 1029.7 41.7333 1029.49 41.08C1029.28 40.4133 1029.17 39.6667 1029.17 38.84C1029.17 38.0267 1029.28 37.2867 1029.49 36.62C1029.7 35.9533 1030.01 35.3867 1030.41 34.92C1030.82 34.44 1031.32 34.0733 1031.89 33.82C1032.48 33.5667 1033.13 33.44 1033.85 33.44C1034.57 33.44 1035.22 33.5667 1035.79 33.82C1036.38 34.0733 1036.87 34.44 1037.27 34.92C1037.68 35.3867 1038 35.9533 1038.21 36.62C1038.42 37.2867 1038.53 38.0267 1038.53 38.84C1038.53 39.6667 1038.42 40.4133 1038.21 41.08C1038 41.7333 1037.68 42.3 1037.27 42.78C1036.87 43.2467 1036.38 43.6067 1035.79 43.86C1035.22 44.1133 1034.57 44.24 1033.85 44.24ZM1033.85 42.86C1034.74 42.86 1035.46 42.5933 1036.01 42.06C1036.56 41.5267 1036.83 40.7 1036.83 39.58V38.1C1036.83 36.98 1036.56 36.1533 1036.01 35.62C1035.46 35.0867 1034.74 34.82 1033.85 34.82C1032.96 34.82 1032.24 35.0867 1031.69 35.62C1031.14 36.1533 1030.87 36.98 1030.87 38.1V39.58C1030.87 40.7 1031.14 41.5267 1031.69 42.06C1032.24 42.5933 1032.96 42.86 1033.85 42.86ZM1041.88 46.64H1046.88V35.04H1041.7V33.68H1048.48V45.64C1048.48 46.3333 1048.3 46.9 1047.92 47.34C1047.56 47.78 1046.99 48 1046.2 48H1041.88V46.64ZM1047.68 31.4C1047.22 31.4 1046.89 31.3067 1046.7 31.12C1046.52 30.92 1046.42 30.6733 1046.42 30.38V30.06C1046.42 29.7667 1046.52 29.5267 1046.7 29.34C1046.89 29.14 1047.22 29.04 1047.68 29.04C1048.15 29.04 1048.48 29.14 1048.66 29.34C1048.85 29.5267 1048.94 29.7667 1048.94 30.06V30.38C1048.94 30.6733 1048.85 30.92 1048.66 31.12C1048.48 31.3067 1048.15 31.4 1047.68 31.4ZM1058.02 44.24C1057.27 44.24 1056.6 44.1133 1056 43.86C1055.41 43.6067 1054.9 43.2467 1054.48 42.78C1054.06 42.3 1053.74 41.7333 1053.52 41.08C1053.29 40.4133 1053.18 39.6733 1053.18 38.86C1053.18 38.0333 1053.29 37.2867 1053.52 36.62C1053.76 35.9533 1054.08 35.3867 1054.5 34.92C1054.91 34.44 1055.4 34.0733 1055.98 33.82C1056.56 33.5667 1057.21 33.44 1057.92 33.44C1058.61 33.44 1059.24 33.5667 1059.8 33.82C1060.37 34.0733 1060.86 34.4267 1061.26 34.88C1061.66 35.32 1061.96 35.8467 1062.18 36.46C1062.39 37.0733 1062.5 37.7467 1062.5 38.48V39.24H1054.86V39.72C1054.86 40.1733 1054.93 40.5933 1055.08 40.98C1055.22 41.3667 1055.43 41.7 1055.7 41.98C1055.98 42.26 1056.31 42.48 1056.7 42.64C1057.1 42.7867 1057.54 42.86 1058.02 42.86C1058.71 42.86 1059.31 42.7 1059.82 42.38C1060.32 42.06 1060.71 41.62 1060.98 41.06L1062.16 41.86C1061.85 42.5533 1061.34 43.1267 1060.62 43.58C1059.91 44.02 1059.04 44.24 1058.02 44.24ZM1057.92 34.76C1057.48 34.76 1057.07 34.84 1056.7 35C1056.32 35.16 1056 35.38 1055.72 35.66C1055.45 35.94 1055.24 36.2733 1055.08 36.66C1054.93 37.0333 1054.86 37.4467 1054.86 37.9V38.04H1060.78V37.82C1060.78 37.3667 1060.7 36.9533 1060.56 36.58C1060.42 36.2067 1060.23 35.8867 1059.98 35.62C1059.74 35.34 1059.44 35.1267 1059.08 34.98C1058.73 34.8333 1058.34 34.76 1057.92 34.76ZM1070.19 44.24C1069.44 44.24 1068.77 44.1133 1068.19 43.86C1067.61 43.5933 1067.13 43.2267 1066.73 42.76C1066.33 42.2933 1066.02 41.7267 1065.81 41.06C1065.61 40.3933 1065.51 39.6533 1065.51 38.84C1065.51 38.0267 1065.61 37.2867 1065.83 36.62C1066.04 35.9533 1066.35 35.3867 1066.75 34.92C1067.15 34.44 1067.63 34.0733 1068.21 33.82C1068.78 33.5667 1069.43 33.44 1070.17 33.44C1071.17 33.44 1071.98 33.66 1072.61 34.1C1073.23 34.54 1073.69 35.1133 1073.99 35.82L1072.71 36.5C1072.52 35.9667 1072.21 35.5533 1071.77 35.26C1071.34 34.9667 1070.81 34.82 1070.17 34.82C1069.7 34.82 1069.28 34.9 1068.91 35.06C1068.55 35.2067 1068.24 35.42 1067.99 35.7C1067.73 35.98 1067.54 36.3133 1067.41 36.7C1067.29 37.0867 1067.23 37.5067 1067.23 37.96V39.72C1067.23 40.1733 1067.29 40.5933 1067.41 40.98C1067.54 41.3667 1067.73 41.7 1067.99 41.98C1068.24 42.26 1068.55 42.48 1068.93 42.64C1069.3 42.7867 1069.73 42.86 1070.21 42.86C1070.9 42.86 1071.47 42.7 1071.93 42.38C1072.38 42.06 1072.74 41.62 1073.01 41.06L1074.15 41.84C1073.84 42.5333 1073.36 43.1067 1072.71 43.56C1072.07 44.0133 1071.23 44.24 1070.19 44.24ZM1082.32 44C1081.53 44 1080.95 43.78 1080.58 43.34C1080.22 42.9 1080.04 42.3333 1080.04 41.64V35.04H1076.6V33.68H1079.16C1079.51 33.68 1079.75 33.6133 1079.88 33.48C1080.03 33.3333 1080.1 33.0867 1080.1 32.74V30.04H1081.64V33.68H1086.34V35.04H1081.64V42.64H1086.34V44H1082.32ZM1093.93 44.24C1092.85 44.24 1091.92 44.06 1091.13 43.7C1090.36 43.3267 1089.7 42.8333 1089.15 42.22L1090.23 41.28C1090.73 41.8 1091.27 42.2 1091.85 42.48C1092.44 42.76 1093.15 42.9 1093.97 42.9C1094.77 42.9 1095.43 42.76 1095.93 42.48C1096.45 42.1867 1096.71 41.7333 1096.71 41.12C1096.71 40.8533 1096.66 40.6333 1096.55 40.46C1096.46 40.2733 1096.33 40.1267 1096.15 40.02C1095.98 39.9133 1095.79 39.8333 1095.57 39.78C1095.36 39.7133 1095.13 39.66 1094.89 39.62L1093.27 39.38C1092.91 39.3267 1092.52 39.2533 1092.09 39.16C1091.68 39.0667 1091.3 38.92 1090.95 38.72C1090.61 38.5067 1090.31 38.2267 1090.07 37.88C1089.85 37.5333 1089.73 37.08 1089.73 36.52C1089.73 36 1089.83 35.5533 1090.03 35.18C1090.25 34.7933 1090.54 34.4733 1090.91 34.22C1091.29 33.9533 1091.73 33.76 1092.23 33.64C1092.74 33.5067 1093.29 33.44 1093.89 33.44C1094.83 33.44 1095.63 33.5867 1096.31 33.88C1097.01 34.1733 1097.6 34.58 1098.09 35.1L1097.05 36.08C1096.93 35.9333 1096.78 35.7867 1096.59 35.64C1096.42 35.48 1096.2 35.34 1095.93 35.22C1095.68 35.0867 1095.38 34.98 1095.03 34.9C1094.69 34.82 1094.29 34.78 1093.83 34.78C1093.02 34.78 1092.39 34.92 1091.95 35.2C1091.53 35.48 1091.31 35.8867 1091.31 36.42C1091.31 36.6867 1091.36 36.9133 1091.45 37.1C1091.56 37.2733 1091.7 37.4133 1091.87 37.52C1092.05 37.6267 1092.24 37.7133 1092.45 37.78C1092.68 37.8333 1092.91 37.88 1093.13 37.92L1094.75 38.16C1095.13 38.2133 1095.52 38.2867 1095.93 38.38C1096.35 38.4733 1096.73 38.6267 1097.07 38.84C1097.42 39.04 1097.71 39.3133 1097.93 39.66C1098.17 40.0067 1098.29 40.46 1098.29 41.02C1098.29 42.0467 1097.89 42.84 1097.09 43.4C1096.31 43.96 1095.25 44.24 1093.93 44.24ZM1113.6 46.76L1120.56 28.8H1122L1115.04 46.76H1113.6ZM1125.59 46.76L1132.55 28.8H1133.99L1127.03 46.76H1125.59ZM1157.67 44C1157.05 44 1156.6 43.84 1156.33 43.52C1156.07 43.2 1155.9 42.8 1155.83 42.32H1155.73C1155.51 42.92 1155.14 43.3933 1154.63 43.74C1154.14 44.0733 1153.47 44.24 1152.63 44.24C1151.55 44.24 1150.69 43.96 1150.05 43.4C1149.41 42.84 1149.09 42.0733 1149.09 41.1C1149.09 40.14 1149.44 39.4 1150.13 38.88C1150.84 38.36 1151.97 38.1 1153.53 38.1H1155.73V37.08C1155.73 36.32 1155.52 35.7533 1155.09 35.38C1154.67 34.9933 1154.06 34.8 1153.27 34.8C1152.58 34.8 1152.01 34.94 1151.57 35.22C1151.13 35.4867 1150.78 35.8533 1150.51 36.32L1149.43 35.52C1149.57 35.2533 1149.75 34.9933 1149.97 34.74C1150.2 34.4867 1150.48 34.2667 1150.81 34.08C1151.15 33.88 1151.53 33.7267 1151.95 33.62C1152.38 33.5 1152.85 33.44 1153.37 33.44C1154.59 33.44 1155.55 33.7467 1156.25 34.36C1156.97 34.9733 1157.33 35.8267 1157.33 36.92V42.6H1158.77V44H1157.67ZM1152.91 42.9C1153.33 42.9 1153.7 42.8533 1154.03 42.76C1154.38 42.6533 1154.68 42.52 1154.93 42.36C1155.19 42.1867 1155.38 41.9867 1155.51 41.76C1155.66 41.52 1155.73 41.2667 1155.73 41V39.3H1153.53C1152.57 39.3 1151.87 39.4333 1151.43 39.7C1150.99 39.9667 1150.77 40.3533 1150.77 40.86V41.28C1150.77 41.8133 1150.96 42.22 1151.33 42.5C1151.72 42.7667 1152.25 42.9 1152.91 42.9ZM1161.67 29.2H1163.27V35.36H1163.35C1164.01 34.08 1165.07 33.44 1166.53 33.44C1167.79 33.44 1168.78 33.9133 1169.49 34.86C1170.21 35.8067 1170.57 37.1333 1170.57 38.84C1170.57 40.5467 1170.21 41.8733 1169.49 42.82C1168.78 43.7667 1167.79 44.24 1166.53 44.24C1165.07 44.24 1164.01 43.6 1163.35 42.32H1163.27V44H1161.67V29.2ZM1165.91 42.82C1166.84 42.82 1167.56 42.54 1168.07 41.98C1168.59 41.4067 1168.85 40.6533 1168.85 39.72V37.96C1168.85 37.0267 1168.59 36.28 1168.07 35.72C1167.56 35.1467 1166.84 34.86 1165.91 34.86C1165.55 34.86 1165.21 34.9067 1164.89 35C1164.57 35.0933 1164.29 35.2333 1164.05 35.42C1163.81 35.5933 1163.61 35.8133 1163.47 36.08C1163.33 36.3333 1163.27 36.6333 1163.27 36.98V40.7C1163.27 41.0467 1163.33 41.3533 1163.47 41.62C1163.61 41.8733 1163.81 42.0933 1164.05 42.28C1164.29 42.4533 1164.57 42.5867 1164.89 42.68C1165.21 42.7733 1165.55 42.82 1165.91 42.82ZM1177.76 44.24C1177.04 44.24 1176.38 44.1133 1175.8 43.86C1175.22 43.6067 1174.73 43.2467 1174.32 42.78C1173.92 42.3 1173.61 41.7333 1173.4 41.08C1173.18 40.4133 1173.08 39.6667 1173.08 38.84C1173.08 38.0267 1173.18 37.2867 1173.4 36.62C1173.61 35.9533 1173.92 35.3867 1174.32 34.92C1174.73 34.44 1175.22 34.0733 1175.8 33.82C1176.38 33.5667 1177.04 33.44 1177.76 33.44C1178.48 33.44 1179.12 33.5667 1179.7 33.82C1180.28 34.0733 1180.78 34.44 1181.18 34.92C1181.59 35.3867 1181.9 35.9533 1182.12 36.62C1182.33 37.2867 1182.44 38.0267 1182.44 38.84C1182.44 39.6667 1182.33 40.4133 1182.12 41.08C1181.9 41.7333 1181.59 42.3 1181.18 42.78C1180.78 43.2467 1180.28 43.6067 1179.7 43.86C1179.12 44.1133 1178.48 44.24 1177.76 44.24ZM1177.76 42.86C1178.65 42.86 1179.37 42.5933 1179.92 42.06C1180.46 41.5267 1180.74 40.7 1180.74 39.58V38.1C1180.74 36.98 1180.46 36.1533 1179.92 35.62C1179.37 35.0867 1178.65 34.82 1177.76 34.82C1176.86 34.82 1176.14 35.0867 1175.6 35.62C1175.05 36.1533 1174.78 36.98 1174.78 38.1V39.58C1174.78 40.7 1175.05 41.5267 1175.6 42.06C1176.14 42.5933 1176.86 42.86 1177.76 42.86ZM1192.19 42.32H1192.11C1192 42.5733 1191.87 42.82 1191.71 43.06C1191.55 43.2867 1191.35 43.4867 1191.11 43.66C1190.88 43.8333 1190.61 43.9733 1190.29 44.08C1189.97 44.1867 1189.6 44.24 1189.17 44.24C1188.09 44.24 1187.22 43.9 1186.57 43.22C1185.92 42.5267 1185.59 41.5533 1185.59 40.3V33.68H1187.19V40.02C1187.19 40.9667 1187.4 41.6733 1187.81 42.14C1188.22 42.5933 1188.83 42.82 1189.63 42.82C1189.95 42.82 1190.26 42.78 1190.57 42.7C1190.88 42.62 1191.15 42.5 1191.39 42.34C1191.63 42.18 1191.82 41.98 1191.97 41.74C1192.12 41.4867 1192.19 41.1867 1192.19 40.84V33.68H1193.79V44H1192.19V42.32ZM1202.24 44C1201.46 44 1200.88 43.78 1200.5 43.34C1200.14 42.9 1199.96 42.3333 1199.96 41.64V35.04H1196.52V33.68H1199.08C1199.43 33.68 1199.67 33.6133 1199.8 33.48C1199.95 33.3333 1200.02 33.0867 1200.02 32.74V30.04H1201.56V33.68H1206.26V35.04H1201.56V42.64H1206.26V44H1202.24Z" fill="black"/>
</svg>
