<svg xmlns="http://www.w3.org/2000/svg" version="1.1" xmlns:xlink="http://www.w3.org/1999/xlink" xmlns:svgjs="http://svgjs.com/svgjs" width="1000" height="1000"><g transform="matrix(4.878048780487805,0,0,4.878048780487805,0,0)"><svg xmlns="http://www.w3.org/2000/svg" version="1.1" xmlns:xlink="http://www.w3.org/1999/xlink" xmlns:svgjs="http://svgjs.com/svgjs" width="205" height="205"><svg width="205" height="205" viewBox="0 0 205 205" fill="none" xmlns="http://www.w3.org/2000/svg">
<rect width="205" height="205" fill="white"></rect>
<circle cx="102.5" cy="102.5" r="102.5" fill="#FFFAF4"></circle>
<ellipse cx="107" cy="123" rx="74" ry="58" fill="#FFB951"></ellipse>
<path d="M71.8657 82.4722C87.0728 82.798 95.0455 100.67 85.1289 112.203L62.9133 138.041C54.3052 148.053 38.2053 145.698 32.8262 133.639L20.9741 107.072C15.5949 95.0136 24.5975 81.4597 37.798 81.7425L71.8657 82.4722Z" fill="#FFB951"></path>
<path d="M173 68.5C173 95.2858 151.286 117 124.5 117C97.7142 117 76 95.2858 76 68.5C76 41.7142 97.7142 20 124.5 20C151.286 20 173 41.7142 173 68.5Z" fill="#FFB951"></path>
<circle cx="108" cy="50" r="6" fill="#3C1306"></circle>
<circle cx="153" cy="46" r="6" fill="#3C1306"></circle>
<ellipse cx="20.4764" cy="8.49827" rx="20.4764" ry="8.49827" transform="matrix(0.999584 -0.028849 0.0246232 0.999697 119 48.1814)" fill="#F37B0C"></ellipse>
<path d="M80.0789 126.273C75.4749 136.98 62.065 140.555 52.7419 133.562L38.9879 123.245C26.9681 114.228 30.6334 95.3238 45.1518 91.453L65.698 85.975C80.2165 82.1042 92.8068 96.6748 86.8711 110.478L80.0789 126.273Z" fill="#FAA036"></path>
<path d="M167.831 91C163.46 99 158 101 151.5 105C145 109 179 113 179 113C176.196 104.506 174.206 99.7179 167.831 91Z" fill="#F58722" fill-opacity="0.87"></path>
</svg></svg></g></svg>